<?xml version="1.0" standalone="no"?>
<!DOCTYPE svg PUBLIC "-//W3C//DTD SVG 20010904//EN"
 "http://www.w3.org/TR/2001/REC-SVG-20010904/DTD/svg10.dtd">
<svg version="1.0" xmlns="http://www.w3.org/2000/svg"
 width="300.000000pt" height="300.000000pt" viewBox="0 0 300.000000 300.000000"
 preserveAspectRatio="xMidYMid meet">
<metadata>
Created by potrace 1.11, written by Peter Selinger 2001-2013
</metadata>
<g transform="translate(0.000000,300.000000) scale(0.100000,-0.100000)"
fill="#000000" stroke="none">
<path d="M0 1500 l0 -1500 1500 0 1500 0 0 1500 0 1500 -1500 0 -1500 0 0
-1500z m1901 1254 c339 -57 586 -246 702 -536 51 -125 68 -220 78 -432 10
-224 -1 -355 -47 -534 -118 -465 -429 -809 -824 -914 -83 -22 -100 -22 -745
-25 -363 -2 -670 -1 -682 2 -61 15 -76 72 -48 188 8 34 24 111 35 172 30 162
44 175 180 175 43 0 82 4 85 10 6 10 30 128 145 720 34 173 75 384 91 468 17
85 28 160 25 168 -4 10 -23 14 -66 14 -64 0 -113 18 -124 45 -12 33 -5 95 28
258 38 179 44 198 78 221 34 24 950 23 1089 0z"/>
<path d="M857 2683 c-3 -5 -19 -80 -37 -168 -17 -88 -34 -168 -36 -177 -5 -16
5 -18 105 -18 60 0 113 -4 116 -10 3 -5 -26 -173 -65 -372 -39 -200 -105 -536
-146 -748 -41 -212 -79 -395 -84 -407 -9 -22 -15 -23 -119 -23 -60 0 -112 -3
-114 -7 -2 -5 -8 -25 -11 -47 -6 -29 -4 -37 6 -34 7 3 15 18 18 34 l5 29 117
3 c112 3 118 4 123 25 10 44 305 1559 305 1568 0 5 -52 9 -116 9 -115 0 -116
0 -111 23 3 12 18 84 33 160 l29 137 470 0 c520 0 565 -4 726 -67 173 -67 327
-207 404 -367 129 -265 137 -696 21 -1049 -51 -153 -151 -327 -249 -433 -61
-66 -65 -74 -42 -74 20 0 128 131 185 226 88 144 143 289 181 474 26 127 37
416 19 542 -50 373 -239 614 -562 723 -146 48 -233 55 -720 55 -246 0 -449 -3
-451 -7z"/>
<path d="M1496 2313 c-3 -16 -71 -365 -151 -778 -81 -412 -149 -760 -152 -772
l-5 -23 190 0 c256 0 324 21 436 137 178 182 289 510 288 853 0 165 -19 259
-74 368 -83 166 -219 242 -429 242 l-97 0 -6 -27z m209 -3 c134 -22 247 -109
307 -237 46 -98 59 -158 65 -308 6 -156 -13 -301 -62 -470 -51 -177 -161 -362
-264 -444 -90 -70 -141 -84 -336 -88 -93 -2 -175 0 -181 4 -9 6 -6 40 12 128
12 66 44 226 69 355 25 129 82 419 126 644 44 225 82 413 85 418 7 11 105 10
179 -2z"/>
<path d="M1591 2192 c-7 -23 -16 -67 -22 -99 -6 -32 -23 -123 -39 -203 -104
-517 -199 -1023 -194 -1031 3 -5 51 -9 107 -9 116 1 183 21 257 80 80 64 176
225 224 376 48 155 60 238 61 409 0 174 -8 219 -57 318 -58 116 -151 184 -269
194 l-58 6 -10 -41z"/>
<path d="M448 620 c-3 -20 0 -30 9 -30 7 0 13 6 13 14 0 8 3 21 6 30 4 10 1
16 -9 16 -9 0 -16 -12 -19 -30z"/>
<path d="M2120 620 c-28 -23 -31 -29 -16 -30 10 0 34 14 53 30 26 23 30 30 15
30 -10 0 -33 -13 -52 -30z"/>
<path d="M437 553 c-10 -10 -8 -43 2 -43 9 0 21 24 21 41 0 11 -14 12 -23 2z"/>
<path d="M1995 535 c-32 -20 -36 -24 -18 -25 23 0 83 30 83 43 0 14 -25 7 -65
-18z"/>
<path d="M416 458 c-3 -13 -6 -33 -6 -46 l0 -23 643 3 c624 4 644 4 718 26 42
12 96 31 120 42 l44 20 -35 -4 c-19 -2 -80 -16 -135 -32 l-100 -28 -617 -4
-617 -3 6 35 c6 40 -11 51 -21 14z"/>
</g>
</svg>
